<svg width="60" height="60" viewBox="0 0 60 60" fill="none" xmlns="http://www.w3.org/2000/svg">
<path d="M30.5 22.125C27.4512 22.125 24.875 24.7012 24.875 27.75C24.875 30.7988 27.4512 33.375 30.5 33.375C33.5488 33.375 36.125 30.7988 36.125 27.75C36.125 24.7012 33.5488 22.125 30.5 22.125Z" fill="#FC973B"/>
<path d="M45.5 14.625H40.6512L35.5756 9.54937C35.2241 9.19772 34.7472 9.00011 34.25 9H26.75C26.2528 9.00011 25.7759 9.19772 25.4244 9.54937L20.3487 14.625H15.5C13.4319 14.625 11.75 16.3069 11.75 18.375V39C11.75 41.0681 13.4319 42.75 15.5 42.75H45.5C47.5681 42.75 49.25 41.0681 49.25 39V18.375C49.25 16.3069 47.5681 14.625 45.5 14.625ZM30.5 37.125C25.4187 37.125 21.125 32.8313 21.125 27.75C21.125 22.6687 25.4187 18.375 30.5 18.375C35.5813 18.375 39.875 22.6687 39.875 27.75C39.875 32.8313 35.5813 37.125 30.5 37.125Z" fill="white"/>
<rect x="3" y="30.25" width="55" height="20" fill="url(#paint0_linear_829_4801)"/>
<rect x="3" y="28.75" width="55" height="3" rx="1.5" fill="url(#paint1_linear_829_4801)"/>
<defs>
<linearGradient id="paint0_linear_829_4801" x1="30.5" y1="30.25" x2="30.5" y2="50.25" gradientUnits="userSpaceOnUse">
<stop stop-color="#FC973B"/>
<stop offset="1" stop-color="#737373" stop-opacity="0"/>
</linearGradient>
<linearGradient id="paint1_linear_829_4801" x1="3" y1="30.25" x2="58" y2="30.25" gradientUnits="userSpaceOnUse">
<stop stop-color="#F6E9CF"/>
<stop offset="1" stop-color="#FC973B"/>
</linearGradient>
</defs>
</svg>
