<svg width="50" height="50" viewBox="0 0 50 50" fill="none" xmlns="http://www.w3.org/2000/svg">
<g id="healthicons:money-bag-outline">
<g id="Group">
<path id="Vector" fill-rule="evenodd" clip-rule="evenodd" d="M29.9682 25.6948C29.681 24.8822 29.1489 24.1787 28.4452 23.6812C27.7415 23.1836 26.9009 22.9165 26.0391 22.9167V21.875H23.9557V22.9167C22.8507 22.9167 21.7909 23.3557 21.0095 24.1371C20.2281 24.9185 19.7891 25.9783 19.7891 27.0833C19.7891 28.1884 20.2281 29.2482 21.0095 30.0296C21.7909 30.811 22.8507 31.25 23.9557 31.25V35.4167C23.0495 35.4167 22.2776 34.8385 21.9901 34.0281C21.9474 33.8955 21.8786 33.7728 21.7877 33.6673C21.6968 33.5618 21.5857 33.4756 21.4609 33.4137C21.3361 33.3519 21.2002 33.3157 21.0611 33.3074C20.9221 33.299 20.7828 33.3186 20.6515 33.365C20.5201 33.4114 20.3995 33.4836 20.2966 33.5775C20.1936 33.6713 20.1106 33.7849 20.0523 33.9114C19.9941 34.0379 19.9618 34.1748 19.9573 34.314C19.9529 34.4532 19.9765 34.5919 20.0266 34.7219C20.3138 35.5344 20.8459 36.2379 21.5496 36.7355C22.2532 37.233 23.0939 37.5001 23.9557 37.5V38.5417H26.0391V37.5C27.1441 37.5 28.2039 37.061 28.9853 36.2796C29.7667 35.4982 30.2057 34.4384 30.2057 33.3333C30.2057 32.2283 29.7667 31.1685 28.9853 30.3871C28.2039 29.6057 27.1441 29.1667 26.0391 29.1667V25C26.4699 24.9999 26.8902 25.1334 27.242 25.382C27.5939 25.6307 27.86 25.9824 28.0036 26.3885C28.0956 26.6491 28.2874 26.8624 28.5366 26.9815C28.6601 27.0405 28.7939 27.0746 28.9305 27.0819C29.0671 27.0892 29.2038 27.0695 29.3328 27.024C29.4618 26.9784 29.5806 26.9079 29.6823 26.8164C29.7841 26.725 29.8668 26.6144 29.9258 26.491C29.9848 26.3676 30.0189 26.2337 30.0262 26.0971C30.0335 25.9605 30.0138 25.8238 29.9682 25.6948ZM23.9557 25C23.4032 25 22.8733 25.2195 22.4826 25.6102C22.0919 26.0009 21.8724 26.5308 21.8724 27.0833C21.8724 27.6359 22.0919 28.1658 22.4826 28.5565C22.8733 28.9472 23.4032 29.1667 23.9557 29.1667V25ZM26.0391 35.4167C26.5916 35.4167 27.1215 35.1972 27.5122 34.8065C27.9029 34.4158 28.1224 33.8859 28.1224 33.3333C28.1224 32.7808 27.9029 32.2509 27.5122 31.8602C27.1215 31.4695 26.5916 31.25 26.0391 31.25V35.4167Z" fill="#FC973B"/>
<path id="Vector_2" fill-rule="evenodd" clip-rule="evenodd" d="M13.7004 8.98021C16.2566 7.72917 20.4504 6.25 25.04 6.25C29.5337 6.25 33.617 7.66771 36.1597 8.90208L36.3035 8.97187C37.0702 9.35104 37.6889 9.70938 38.1243 10L34.2764 15.625C43.1472 24.6938 49.9993 43.7469 25.04 43.7469C0.0805779 43.7469 6.74829 25.0396 15.6962 15.625L11.8733 10C12.1681 9.80729 12.542 9.58333 12.9879 9.34583C13.2087 9.22708 13.4462 9.10451 13.7004 8.98021ZM31.8035 15.551L34.8837 11.0479C32.0191 11.2542 28.6108 11.9271 25.3295 12.8771C22.9858 13.5542 20.3816 13.451 17.9702 13.0062C17.3625 12.8937 16.7589 12.7596 16.1608 12.6042L18.1608 15.549C22.4472 17.075 27.516 17.075 31.8035 15.551ZM16.9577 17.3229C21.9733 19.2604 28.0014 19.2604 33.017 17.3208C35.1101 19.5283 36.8614 22.0362 38.2129 24.7615C39.6212 27.6344 40.3879 30.5063 40.2629 32.9813C40.142 35.3698 39.2025 37.4104 37.0566 38.9271C34.8202 40.5073 31.0587 41.6635 25.0389 41.6635C19.0129 41.6635 15.2337 40.5271 12.9764 38.9646C10.815 37.4677 9.866 35.4542 9.73162 33.0979C9.591 30.65 10.341 27.7927 11.7441 24.9C13.0827 22.1417 14.9504 19.4865 16.9577 17.3229ZM15.7597 10.3292C16.5931 10.5771 17.4639 10.7927 18.3472 10.9562C20.5868 11.3687 22.8327 11.4292 24.7493 10.874C26.9828 10.223 29.2545 9.71128 31.5514 9.34167C29.6347 8.76458 27.3931 8.33333 25.0389 8.33333C21.4504 8.33333 18.1035 9.33438 15.7597 10.3292Z" fill="#333333"/>
</g>
</g>
</svg>
