<svg width="27" height="29" viewBox="0 0 27 29" fill="none" xmlns="http://www.w3.org/2000/svg">
<g clip-path="url(#clip0_316_19257)">
<path d="M13.5011 27.3478C20.2511 27.3478 25.0725 24.8678 25.0725 19.3478C25.0725 13.3478 22.1797 10.3078 16.394 7.3078L18.8973 3.2518C18.9955 3.05613 19.0441 2.83775 19.0385 2.61722C19.033 2.39669 18.9733 2.18127 18.8653 1.99122C18.7573 1.80118 18.6044 1.64277 18.4211 1.5309C18.2377 1.41904 18.0299 1.3574 17.8173 1.3518H9.64012C9.41328 1.34733 9.18953 1.40678 8.99271 1.52382C8.7959 1.64086 8.6334 1.81109 8.52254 2.01638C8.41169 2.22166 8.35664 2.4543 8.36326 2.68948C8.36987 2.92466 8.43791 3.15357 8.56012 3.3518L10.6083 7.3078C4.82254 10.3478 1.92969 13.3878 1.92969 19.3878C1.92969 24.8678 6.75112 27.3478 13.5011 27.3478Z" stroke="#FC973B" stroke-width="2" stroke-linecap="round" stroke-linejoin="round"/>
<path d="M10.6094 7.34766C10.9269 7.84145 11.3571 8.24631 11.8618 8.52633C12.3664 8.80634 12.9299 8.95285 13.5022 8.95285C14.0746 8.95285 14.6381 8.80634 15.1427 8.52633C15.6473 8.24631 16.0775 7.84145 16.3951 7.34766" stroke="#FC973B" stroke-width="2" stroke-linecap="round" stroke-linejoin="round"/>
<path fill-rule="evenodd" clip-rule="evenodd" d="M14.9099 12.0208C16.3885 11.8246 17.7758 12.1586 18.5388 12.9376C19.0467 13.4567 19.2974 14.0605 19.2845 14.7226C19.2736 15.3533 19.0242 15.9655 18.6815 16.5365C18.1917 17.3535 17.4267 18.2185 16.5794 19.1057L16.1108 19.5913L15.0719 20.6525L14.6277 21.1C13.7418 21.9834 12.8778 22.784 12.0633 23.2926C11.504 23.6424 10.9043 23.8963 10.2865 23.9088C9.63783 23.9219 9.0464 23.666 8.5379 23.1469C7.77483 22.3679 7.44761 20.9524 7.63983 19.4424C7.83718 17.8936 8.58547 16.1381 10.129 14.5618C11.6731 12.9868 13.3934 12.2223 14.9099 12.0208ZM9.44368 17.7827C9.22514 18.2603 9.06494 18.7635 8.96668 19.2809C9.23711 19.5176 9.55683 19.6992 9.92583 19.8256C10.0876 19.8807 10.2642 19.8679 10.4168 19.7901C10.5694 19.7122 10.6854 19.5757 10.7394 19.4105C10.7933 19.2454 10.7808 19.0651 10.7045 18.9093C10.6283 18.7536 10.4946 18.6351 10.3328 18.58C9.90397 18.4344 9.6179 18.1784 9.44368 17.782V17.7827ZM11.3723 15.1669C11.0485 15.4652 10.7464 15.7872 10.4684 16.1303C10.5931 16.295 10.7294 16.4512 10.8676 16.5923C11.2437 16.9755 11.7245 17.3437 12.1983 17.5045C12.3541 17.5581 12.524 17.5489 12.6733 17.4786C12.8225 17.4083 12.9397 17.2823 13.0008 17.1265C13.0619 16.9707 13.0622 16.797 13.0016 16.641C12.9411 16.485 12.8243 16.3586 12.6753 16.2878L12.6053 16.2595C12.3976 16.1893 12.0833 15.9774 11.7773 15.6643C11.6265 15.5125 11.4909 15.3459 11.3723 15.1669ZM14.2137 13.5066C13.8164 13.6234 13.4043 13.7888 12.9878 14.0106C13.322 14.5664 13.8228 14.9635 14.4715 15.1846C14.5519 15.2132 14.637 15.2252 14.722 15.22C14.807 15.2147 14.8901 15.1922 14.9665 15.1539C15.0429 15.1156 15.1111 15.0621 15.1671 14.9967C15.2231 14.9312 15.2659 14.8551 15.2928 14.7726C15.3198 14.6902 15.3304 14.6031 15.3241 14.5164C15.3178 14.4298 15.2947 14.3452 15.2562 14.2677C15.2176 14.1902 15.1644 14.1213 15.0995 14.065C15.0347 14.0087 14.9595 13.9661 14.8784 13.9397C14.5994 13.8445 14.3808 13.7035 14.2137 13.5066Z" fill="#FC973B"/>
</g>
<defs>
<clipPath id="clip0_316_19257">
<rect width="27" height="28" fill="white" transform="translate(0 0.347656)"/>
</clipPath>
</defs>
</svg>
