<svg width="35" height="36" viewBox="0 0 35 36" fill="none" xmlns="http://www.w3.org/2000/svg">
<g id="mingcute:time-line">
<g id="Group">
<g id="Vector">
<path fill-rule="evenodd" clip-rule="evenodd" d="M32.0846 18.0001C32.0846 9.94571 25.5557 3.41675 17.5013 3.41675C9.44693 3.41675 2.91797 9.94571 2.91797 18.0001C2.91797 26.0545 9.44693 32.5834 17.5013 32.5834C25.5557 32.5834 32.0846 26.0545 32.0846 18.0001ZM9.25172 9.7505C11.4396 7.56258 14.4071 6.33341 17.5013 6.33341C20.5955 6.33341 23.563 7.56258 25.7509 9.7505C27.9388 11.9384 29.168 14.9059 29.168 18.0001C29.168 21.0943 27.9388 24.0617 25.7509 26.2497C23.563 28.4376 20.5955 29.6667 17.5013 29.6667C14.4071 29.6667 11.4396 28.4376 9.25172 26.2497C7.0638 24.0617 5.83464 21.0943 5.83464 18.0001C5.83464 14.9059 7.0638 11.9384 9.25172 9.7505Z" fill="#333333"/>
<path d="M17.5013 9.25008C17.8585 9.25013 18.2033 9.38127 18.4702 9.61862C18.7371 9.85598 18.9076 10.183 18.9494 10.5378L18.9596 10.7084V17.3963L22.9073 21.344C23.1689 21.6065 23.3207 21.9586 23.3321 22.329C23.3434 22.6993 23.2133 23.0601 22.9682 23.338C22.7232 23.6159 22.3815 23.7901 22.0127 23.8252C21.6438 23.8604 21.2755 23.7538 20.9823 23.5272L20.8453 23.4061L16.4703 19.0311C16.2436 18.8043 16.098 18.509 16.0561 18.1911L16.043 18.0001V10.7084C16.043 10.3216 16.1966 9.95071 16.4701 9.67722C16.7436 9.40373 17.1145 9.25008 17.5013 9.25008Z" fill="#FC973B"/>
</g>
</g>
</g>
</svg>
