<svg width="80" height="81" viewBox="0 0 80 81" fill="none" xmlns="http://www.w3.org/2000/svg">
<g id="hugeicons:question">
<path id="Vector" d="M51.6396 25.684H51.6663M61.6396 25.684H61.6663M73.333 24.9607C73.333 33.7673 65.8696 40.9073 56.6663 40.9073C55.5819 40.9073 54.5074 40.8073 53.443 40.6073C52.6763 40.464 52.293 40.394 52.0263 40.434C51.7597 40.474 51.3796 40.674 50.6263 41.0773C48.4695 42.2269 45.9872 42.6134 43.583 42.174C44.502 41.0385 45.125 39.6927 45.3963 38.2573C45.563 37.374 45.1497 36.5173 44.5297 35.8907C41.6369 32.9876 40.0087 29.0589 39.9996 24.9607C39.9996 16.1573 47.463 9.01733 56.6663 9.01733C65.8696 9.01733 73.333 16.1573 73.333 24.9607ZM25.0063 72.3507H15.7263C14.6497 72.3507 13.5663 72.1973 12.5763 71.774C9.35632 70.3907 7.71965 68.5607 6.95965 67.4173C6.75339 67.1006 6.65205 66.727 6.67 66.3495C6.68795 65.972 6.82427 65.6097 7.05965 65.314C10.793 60.354 19.4597 57.3607 25.023 57.3607C30.583 57.3607 39.2363 60.354 42.9696 65.314C43.4396 65.9373 43.503 66.7673 43.0696 67.4173C42.3063 68.5607 40.6697 70.3907 37.4497 71.774C36.4492 72.1766 35.3778 72.3727 34.2997 72.3507H25.0063ZM34.2863 39.9807C34.2846 41.1958 34.0435 42.3988 33.5768 43.5208C33.1102 44.6427 32.4271 45.6618 31.5667 46.5199C30.7062 47.3779 29.6851 48.058 28.5618 48.5214C27.4384 48.9848 26.2348 49.2224 25.0197 49.2207C22.5667 49.2224 20.2134 48.2501 18.477 46.5175C16.7406 44.7849 15.7632 42.4336 15.7597 39.9807C15.761 38.7655 16.0016 37.5625 16.4678 36.4403C16.9341 35.3182 17.6168 34.2988 18.477 33.4405C19.3371 32.5822 20.358 31.9017 21.4811 31.4379C22.6043 30.9741 23.8078 30.736 25.023 30.7373C26.2381 30.736 27.4417 30.9741 28.5648 31.4379C29.688 31.9017 30.7088 32.5822 31.569 33.4405C32.4292 34.2988 33.1119 35.3182 33.5781 36.4403C34.0444 37.5625 34.285 38.7655 34.2863 39.9807Z" stroke="#454545" stroke-width="4" stroke-linecap="round" stroke-linejoin="round"/>
<path id="Vector_2" d="M51.6406 25.6841H51.6673M61.6406 25.6841H61.6673" stroke="#FC973B" stroke-width="4" stroke-linecap="round" stroke-linejoin="round"/>
</g>
</svg>
