<svg width="25" height="25" viewBox="0 0 25 25" fill="none" xmlns="http://www.w3.org/2000/svg">
<path d="M24.4334 6.92366L21.7995 2.71912C21.5641 2.34168 21.1461 2.11035 20.6997 2.11035H4.30357C3.85714 2.11035 3.43912 2.34168 3.20373 2.71912L0.569804 6.92366C-0.789774 9.09493 0.415583 12.1144 2.95617 12.4594C3.1388 12.4837 3.32549 12.4959 3.51217 12.4959C4.71347 12.4959 5.77678 11.9683 6.5073 11.1526C7.23782 11.9683 8.30519 12.4959 9.50243 12.4959C10.7037 12.4959 11.767 11.9683 12.4976 11.1526C13.2281 11.9683 14.2955 12.4959 15.4927 12.4959C16.694 12.4959 17.7573 11.9683 18.4878 11.1526C19.2224 11.9683 20.2857 12.4959 21.483 12.4959C21.6737 12.4959 21.8563 12.4837 22.039 12.4594C24.5877 12.1185 25.7971 9.09899 24.4334 6.92366ZM21.4911 13.7987C21.0852 13.7987 20.6834 13.7378 20.2938 13.6444V17.6948H4.70941V13.6444C4.3198 13.7337 3.91802 13.7987 3.51217 13.7987C3.26867 13.7987 3.0211 13.7824 2.78165 13.75C2.55438 13.7175 2.33117 13.6647 2.11607 13.6039V21.5909C2.11607 22.3092 2.69643 22.8896 3.41477 22.8896H21.5966C22.3149 22.8896 22.8953 22.3092 22.8953 21.5909V13.6039C22.6761 13.6688 22.457 13.7216 22.2297 13.75C21.9821 13.7824 21.7386 13.7987 21.4911 13.7987Z" fill="#9CA3AF"/>
</svg>
