<svg width="71" height="71" viewBox="0 0 71 71" fill="none" xmlns="http://www.w3.org/2000/svg">
<g id="Group">
<path id="Vector" d="M27 35.3333V38.111M43.6667 35.3333V38.111" stroke="#FC973B" stroke-width="4" stroke-linecap="round" stroke-linejoin="round"/>
<path id="Vector_2" d="M29.7773 47.8333C29.7773 47.8333 31.6301 49.2221 35.3329 49.2221C39.0357 49.2221 40.8885 47.8333 40.8885 47.8333" stroke="#FC973B" stroke-width="4" stroke-linecap="round" stroke-linejoin="round"/>
<path id="Vector_3" d="M32 22H38.6667M32 22C22.5733 22 17.8567 22 14.93 24.93C12 27.8567 12 32.5733 12 42C12 51.4267 12 56.1433 14.93 59.07C17.0667 61.21 20.1567 61.7867 25.3333 61.9433C25.3333 65.3033 22 68.6667 22 68.6667C33.6667 68.6667 35.3333 62 35.3333 62H38.6667C48.0933 62 52.81 62 55.7367 59.07C58.6667 56.1433 58.6667 51.4267 58.6667 42C58.6667 32.5733 58.6667 27.8567 55.7367 24.93C52.81 22 48.0933 22 38.6667 22M32 22H35.3333M38.6667 22H35.3333M58.6667 33.6667H60.3333C63.45 33.6667 65.0067 33.6667 66.1667 34.3367C66.9267 34.7755 67.5578 35.4066 67.9967 36.1667C68.6667 37.3267 68.6667 38.8833 68.6667 42C68.6667 45.1167 68.6667 46.6733 67.9967 47.8333C67.5578 48.5934 66.9267 49.2245 66.1667 49.6633C65.0067 50.3333 63.45 50.3333 60.3333 50.3333H58.6667M12 33.6667H10.3333C7.21667 33.6667 5.66 33.6667 4.5 34.3367C3.73997 34.7755 3.10882 35.4066 2.67 36.1667C2 37.3267 2 38.8833 2 42C2 45.1167 2 46.6733 2.67 47.8333C3.10882 48.5934 3.73997 49.2245 4.5 49.6633C5.66 50.3333 7.21667 50.3333 10.3333 50.3333H12M35.3333 12C36.6594 12 37.9312 11.4732 38.8689 10.5355C39.8065 9.59785 40.3333 8.32608 40.3333 7C40.3333 5.67392 39.8065 4.40215 38.8689 3.46447C37.9312 2.52678 36.6594 2 35.3333 2C34.0072 2 32.7355 2.52678 31.7978 3.46447C30.8601 4.40215 30.3333 5.67392 30.3333 7C30.3333 8.32608 30.8601 9.59785 31.7978 10.5355C32.7355 11.4732 34.0072 12 35.3333 12ZM35.3333 12V22" stroke="#454545" stroke-width="4" stroke-linecap="round" stroke-linejoin="round"/>
</g>
</svg>
