<svg width="60" height="60" viewBox="0 0 60 60" fill="none" xmlns="http://www.w3.org/2000/svg">
<g clip-path="url(#clip0_1025_4693)">
<path d="M31.5 14.9967H51.015C54.321 14.9967 57 17.6847 57 20.9877V41.9967H36V47.9967H51.015C54.321 47.9967 57 50.6607 57 53.9967V59.9967H3V53.9967C3 50.6817 5.679 47.9967 8.985 47.9967H24V41.9967H3V20.9877C3 17.6787 5.679 14.9967 8.985 14.9967H28.5V8.74166C27.4992 8.38782 26.6557 7.69156 26.1186 6.77594C25.5814 5.86033 25.3853 4.78431 25.5648 3.73806C25.7443 2.69182 26.2879 1.74272 27.0995 1.05851C27.9111 0.374293 28.9385 -0.000976562 30 -0.000976562C31.0615 -0.000976562 32.0889 0.374293 32.9005 1.05851C33.7121 1.74272 34.2557 2.69182 34.4352 3.73806C34.6147 4.78431 34.4186 5.86033 33.8814 6.77594C33.3443 7.69156 32.5008 8.38782 31.5 8.74166V14.9967ZM19.5 32.9967C20.6935 32.9967 21.8381 32.5226 22.682 31.6786C23.5259 30.8347 24 29.6901 24 28.4967C24 27.3032 23.5259 26.1586 22.682 25.3147C21.8381 24.4708 20.6935 23.9967 19.5 23.9967C18.3065 23.9967 17.1619 24.4708 16.318 25.3147C15.4741 26.1586 15 27.3032 15 28.4967C15 29.6901 15.4741 30.8347 16.318 31.6786C17.1619 32.5226 18.3065 32.9967 19.5 32.9967ZM40.5 32.9967C41.6935 32.9967 42.8381 32.5226 43.682 31.6786C44.5259 30.8347 45 29.6901 45 28.4967C45 27.3032 44.5259 26.1586 43.682 25.3147C42.8381 24.4708 41.6935 23.9967 40.5 23.9967C39.3065 23.9967 38.1619 24.4708 37.318 25.3147C36.4741 26.1586 36 27.3032 36 28.4967C36 29.6901 36.4741 30.8347 37.318 31.6786C38.1619 32.5226 39.3065 32.9967 40.5 32.9967Z" fill="#FC973B"/>
</g>
<defs>
<clipPath id="clip0_1025_4693">
<rect width="60" height="60" fill="white"/>
</clipPath>
</defs>
</svg>
